<svg width="351" height="527" viewBox="0 0 351 527" fill="none" xmlns="http://www.w3.org/2000/svg">
<path fill-rule="evenodd" clip-rule="evenodd" d="M349.97 306.972C346.066 400.209 269.275 474.607 175.079 474.607C78.3853 474.607 0.000122901 393.586 0.000122901 299.528C0.000122901 286.956 -0.225246 261.83 18.6256 219.438C29.907 194.069 36.9828 178.131 40.9761 163.562C43.1702 155.555 47.4372 142.834 59.6015 163.562C66.7742 175.784 67.0517 193.363 67.0517 193.363C67.0517 193.363 93.7382 172.884 111.753 133.761C138.162 76.4081 117.091 42.1243 109.89 18.2838C107.398 10.0364 105.834 -4.7857 122.928 1.52087C140.347 7.94851 186.396 40.1835 210.468 74.1601C244.822 122.651 257.031 169.15 257.031 169.15C257.031 169.15 268.031 155.497 271.931 141.212C276.336 125.08 276.402 109.103 290.555 126.313C304.016 142.679 324.006 173.435 335.258 202.676C355.688 255.775 349.97 306.972 349.97 306.972Z" fill="url(#paint0_linear_972_50)"/>
<path fill-rule="evenodd" clip-rule="evenodd" d="M175.079 474.607C108.216 474.607 54.0137 420.405 54.0137 353.542C54.0137 313.197 70.2718 288.703 104.109 255.486C125.774 234.218 146.051 208.095 154.669 190.308C156.366 186.807 160.227 168.559 175.114 189.925C182.924 201.13 195.167 221.057 203.017 238.064C216.55 267.386 219.78 295.803 219.78 295.803C219.78 295.803 233.043 287.987 242.131 267.865C245.06 261.379 250.983 236.827 267.541 261.375C279.691 279.39 296.381 311.78 296.144 353.542C296.144 420.405 241.941 474.607 175.079 474.607Z" fill="#FC9502"/>
<path fill-rule="evenodd" clip-rule="evenodd" d="M176.942 342.367C194.17 342.367 194.17 374.271 216.055 416.869C230.628 445.234 208.83 474.608 176.942 474.608C145.053 474.608 128.516 448.758 128.516 416.869C128.516 384.982 159.713 342.367 176.942 342.367Z" fill="#FCE202"/>
<circle cx="175.707" cy="352" r="160" fill="#3B82F6" stroke="white" stroke-width="30"/>
<path d="M252.584 369.159H192.812V428.882C192.812 438.335 185.185 446 175.731 446C166.278 446 158.655 438.335 158.655 428.878V369.118H98.8533C89.3999 369.118 81.7146 361.453 81.7188 351.996C81.7146 347.271 83.6235 342.94 86.7167 339.847C89.814 336.745 94.0873 334.787 98.8078 334.787H158.655V275.11C158.655 270.381 160.53 266.099 163.628 263.01C166.725 259.913 170.986 257.996 175.715 257.996C185.164 257.996 192.812 265.66 192.812 275.11V334.791H252.584C262.038 334.791 269.702 342.522 269.698 351.975C269.694 361.424 262.029 369.159 252.584 369.159Z" fill="white"/>
<defs>
<linearGradient id="paint0_linear_972_50" x1="175.342" y1="474.957" x2="175.342" y2="0.358639" gradientUnits="userSpaceOnUse">
<stop stop-color="#FF4C0D"/>
<stop offset="1" stop-color="#FC9502"/>
</linearGradient>
</defs>
</svg>
